<?xml version="1.0" encoding="UTF-8" standalone="no"?>
<!-- Generator: Adobe Illustrator 19.0.0, SVG Export Plug-In . SVG Version: 6.00 Build 0)  -->

<svg
   xmlns:dc="http://purl.org/dc/elements/1.1/"
   xmlns:cc="http://creativecommons.org/ns#"
   xmlns:rdf="http://www.w3.org/1999/02/22-rdf-syntax-ns#"
   xmlns:svg="http://www.w3.org/2000/svg"
   xmlns="http://www.w3.org/2000/svg"
   xmlns:sodipodi="http://sodipodi.sourceforge.net/DTD/sodipodi-0.dtd"
   xmlns:inkscape="http://www.inkscape.org/namespaces/inkscape"
   version="1.1"
   id="Layer_1"
   x="0px"
   y="0px"
   viewBox="0 0 512 512"
   style="enable-background:new 0 0 512 512;"
   xml:space="preserve"
   sodipodi:docname="lagoon.svg"
   inkscape:version="0.92.2 (5c3e80d, 2017-08-06)"
   inkscape:export-filename="C:\Users\u083051\Projects\lagoon\meta\logos\lagoon_16px.png"
   inkscape:export-xdpi="3"
   inkscape:export-ydpi="3"><metadata
     id="metadata3867"><rdf:RDF><cc:Work
         rdf:about=""><dc:format>image/svg+xml</dc:format><dc:type
           rdf:resource="http://purl.org/dc/dcmitype/StillImage" /><dc:title></dc:title></cc:Work></rdf:RDF></metadata><defs
     id="defs3865" /><sodipodi:namedview
     pagecolor="#ffffff"
     bordercolor="#666666"
     borderopacity="1"
     objecttolerance="10"
     gridtolerance="10"
     guidetolerance="10"
     inkscape:pageopacity="0"
     inkscape:pageshadow="2"
     inkscape:window-width="1920"
     inkscape:window-height="1137"
     id="namedview3863"
     showgrid="false"
     inkscape:zoom="1.3368738"
     inkscape:cx="96.720766"
     inkscape:cy="294.93898"
     inkscape:window-x="-8"
     inkscape:window-y="-8"
     inkscape:window-maximized="1"
     inkscape:current-layer="Layer_1"
     inkscape:snap-midpoints="true" /><path
     style="fill:#B1E3FB;"
     d="M256.001,0C397.386,0,512,114.614,512,256.001C512,397.386,397.386,512,256.001,512  C114.614,512,0,397.386,0,256.001C0,114.614,114.614,0,256.001,0z"
     id="path3784" /><path
     inkscape:connector-curvature="0"
     id="path3792"
     d="m 210.19498,53.443617 c 13.68688,0 26.61437,2.807802 38.04043,7.787811 12.37752,-10.446404 29.34214,-16.891116 48.03501,-16.891116 32.38851,0 59.53523,19.289918 66.81512,45.27328 16.18337,4.189571 29.17194,14.707858 35.08575,28.221838 1.95091,-0.18778 3.93234,-0.26541 5.92249,-0.26541 29.92263,0 54.18452,20.88727 54.18452,46.66612 0,25.76781 -24.26623,46.65507 -54.18452,46.65507 -9.33109,0 -18.09925,-2.0119 -25.75447,-5.58249 -6.59031,19.3839 -27.38247,33.55563 -52.03718,33.55563 -15.05299,0 -28.67003,-5.29503 -38.49436,-13.8401 -9.81561,8.54507 -23.44577,13.8401 -38.51179,13.8401 -14.30225,0 -27.33011,-4.7921 -37.02788,-12.602 -9.88545,9.34649 -24.13971,15.19425 -39.99136,15.19425 -14.82601,0 -28.25097,-5.12369 -38.02732,-13.42003 -4.48231,0.84566 -9.13915,1.27678 -13.89636,1.27678 -35.670564,0 -64.576237,-24.88344 -64.576237,-55.58145 0,-30.71466 28.90129,-55.59257 64.576237,-55.59257 1.93783,0 3.85815,0.077 5.76541,0.22653 4.58265,-36.496089 40.46707,-64.922451 84.07651,-64.922451 z"
     style="fill:#e2f4fd;stroke-width:4.91152859" /><path
     style="fill:#7FDDE9;"
     d="M0.075,261.837h511.849C508.821,400.526,395.435,512,256.001,512  C116.565,512,3.179,400.526,0.075,261.837z"
     id="path3804" /><path
     style="fill:#4CCFDF;"
     d="M9.199,324.189h493.602C472.951,432.47,373.77,512,256.001,512  C138.23,512,39.049,432.47,9.199,324.189z"
     id="path3806" /><path
     style="fill:#26C5D9;"
     d="M34.891,385.077h442.218C432.694,460.997,350.309,512,256.001,512  C161.691,512,79.306,460.997,34.891,385.077z"
     id="path3808" /><path
     style="fill:#31BBCB;"
     d="M81.569,443.354h348.861C384.714,485.935,323.403,512,256.001,512  C188.597,512,127.286,485.935,81.569,443.354z"
     id="path3810" /><g
     id="g3832" /><g
     id="g3834" /><g
     id="g3836" /><g
     id="g3838" /><g
     id="g3840" /><g
     id="g3842" /><g
     id="g3844" /><g
     id="g3846" /><g
     id="g3848" /><g
     id="g3850" /><g
     id="g3852" /><g
     id="g3854" /><g
     id="g3856" /><g
     id="g3858" /><g
     id="g3860" /></svg>